<?xml version="1.0" encoding="utf-8"?>
<!-- Generator: Adobe Illustrator 25.4.1, SVG Export Plug-In . SVG Version: 6.00 Build 0)  -->
<svg version="1.1" id="Layer_1" xmlns="http://www.w3.org/2000/svg" xmlns:xlink="http://www.w3.org/1999/xlink" x="0px" y="0px"
	 viewBox="0 0 48 48" style="enable-background:new 0 0 48 48;" xml:space="preserve">
<style type="text/css">
	.st0{fill:#FFC600;}
</style>
<polygon class="st0" points="0,47.8 17.9,30.5 36.1,47.8 48,47.8 17.6,18.6 8.4,28.8 8.2,19.4 0,19.5 "/>
<path class="st0" d="M0,12h8.1V7.7h17.4c0,0,4.1,0,6.2,1.2c3.5,2.1,6.2,6.6-0.6,14.2l6.3,5.7c0,0,2.7-3.7,5.2-8.2
	C46.6,13.3,41.3,0,25.2,0H0V12z"/>
<rect x="14.1" y="40.7" class="st0" width="3.2" height="3.1"/>
<rect x="18.4" y="40.7" class="st0" width="3.2" height="3.1"/>
<rect x="14.1" y="44.9" class="st0" width="3.2" height="3.1"/>
<rect x="18.4" y="44.9" class="st0" width="3.2" height="3.1"/>
</svg>
