<svg id="Layer_2" data-name="Layer 2" xmlns="http://www.w3.org/2000/svg" viewBox="0 0 308.6 55.25"><defs><style>.cls-1{fill:#ffc600;}.cls-2{fill:#fff;}</style></defs><polygon class="cls-1" points="0 55 19.85 35.11 40.04 55 53.22 55 19.5 21.41 9.31 33.18 9.13 22.29 0 22.47 0 55"/><path class="cls-1" d="M136.5,252h9v-5h19.33s4.6,0,6.86,1.42c3.88,2.45,6.86,7.61-.67,16.32l6.94,6.52a105.51,105.51,0,0,0,5.76-9.45c4.45-8.28-1.41-23.64-19.31-23.64H136.5Z" transform="translate(-136.5 -238.16)"/><rect class="cls-1" x="15.58" y="46.86" width="3.56" height="3.56"/><rect class="cls-1" x="20.41" y="46.86" width="3.56" height="3.56"/><rect class="cls-1" x="15.58" y="51.69" width="3.56" height="3.56"/><rect class="cls-1" x="20.41" y="51.69" width="3.56" height="3.56"/><path class="cls-2" d="M197.35,239.73h10.84c3,0,5.36.82,6.91,2.34a7.16,7.16,0,0,1,2,5.28v.07a7.19,7.19,0,0,1-5.09,7.16l5.8,8.25h-6.1l-5.08-7.39h-4.1v7.39h-5.22ZM207.85,251c2.55,0,4-1.32,4-3.27v-.07c0-2.17-1.56-3.3-4.1-3.3h-5.18V251Z" transform="translate(-136.5 -238.16)"/><path class="cls-2" d="M221.85,239.73h17.88v4.52H227v4.68h11.18v4.53H227v4.85H239.9v4.52H221.85Z" transform="translate(-136.5 -238.16)"/><path class="cls-2" d="M252.67,239.56h4.81l10.17,23.27h-5.46L260,257.65H250l-2.17,5.18h-5.32Zm5.49,13.6L255,245.67l-3.15,7.49Z" transform="translate(-136.5 -238.16)"/><path class="cls-2" d="M271.3,239.73h5.22v18.48h11.82v4.62h-17Z" transform="translate(-136.5 -238.16)"/><path class="cls-2" d="M302.44,239.73h17.88v4.52h-12.7v4.68H318.8v4.53H307.62v4.85h12.87v4.52H302.44Z" transform="translate(-136.5 -238.16)"/><path class="cls-2" d="M323.51,259.46l3.08-3.6a11,11,0,0,0,7.08,2.81c2.13,0,3.42-.83,3.42-2.18v-.06c0-1.29-.81-2-4.77-2.94-4.78-1.19-7.86-2.48-7.86-7.06v-.07c0-4.19,3.45-7,8.3-7a13.94,13.94,0,0,1,8.8,2.93l-2.71,3.83a11.28,11.28,0,0,0-6.16-2.28c-2,0-3.05.89-3.05,2V246c0,1.52,1,2,5.11,3,4.81,1.22,7.52,2.9,7.52,6.93V256c0,4.58-3.59,7.16-8.7,7.16A15.29,15.29,0,0,1,323.51,259.46Z" transform="translate(-136.5 -238.16)"/><path class="cls-2" d="M351.83,244.41h-7.22v-4.68h19.65v4.68h-7.21v18.42h-5.22Z" transform="translate(-136.5 -238.16)"/><path class="cls-2" d="M373.34,239.56h4.81l10.16,23.27h-5.45l-2.17-5.18h-10l-2.17,5.18h-5.31Zm5.49,13.6-3.15-7.49-3.15,7.49Z" transform="translate(-136.5 -238.16)"/><path class="cls-2" d="M394.44,244.41h-7.21v-4.68h19.65v4.68h-7.22v18.42h-5.22Z" transform="translate(-136.5 -238.16)"/><path class="cls-2" d="M410.87,239.73h17.89v4.52h-12.7v4.68h11.18v4.53H416.06v4.85h12.87v4.52H410.87Z" transform="translate(-136.5 -238.16)"/><path class="cls-1" d="M195.09,288.55l2.22-3.29a10.52,10.52,0,0,0,5.75,2.1c1.5,0,2.18-.52,2.18-1.31V286c0-1.09-1.77-1.45-3.78-2-2.55-.73-5.45-1.88-5.45-5.31v-.06c0-3.59,3-5.6,6.68-5.6a13,13,0,0,1,6.81,2l-2,3.46a11.07,11.07,0,0,0-4.93-1.65c-1.26,0-1.91.53-1.91,1.22v.07c0,1,1.74,1.45,3.71,2.11,2.55.82,5.52,2,5.52,5.23v.07c0,3.92-3,5.7-7,5.7A13,13,0,0,1,195.09,288.55Z" transform="translate(-136.5 -238.16)"/><path class="cls-1" d="M212.53,285.82v-.07c0-3.85,3-5.63,7.36-5.63a13.34,13.34,0,0,1,4.46.72v-.29c0-2.08-1.33-3.23-3.92-3.23a13.91,13.91,0,0,0-5,.95l-1.29-3.82a16.49,16.49,0,0,1,7.08-1.42c2.83,0,4.87.73,6.16,2a7.51,7.51,0,0,1,2,5.63v10.25h-5V289a7.12,7.12,0,0,1-5.51,2.24C215.36,291.22,212.53,289.31,212.53,285.82Zm11.89-1.16v-.89a8.4,8.4,0,0,0-3.31-.66c-2.21,0-3.57.86-3.57,2.44v.07c0,1.35,1.15,2.14,2.82,2.14C222.78,287.76,224.42,286.48,224.42,284.66Z" transform="translate(-136.5 -238.16)"/><path class="cls-1" d="M234,266.84h5.18v24.05H234Z" transform="translate(-136.5 -238.16)"/><path class="cls-1" d="M243.18,282.16v-.07a8.93,8.93,0,0,1,9-9.19c6.09,0,8.88,4.58,8.88,9.59,0,.39,0,.86-.06,1.32H248.32a4.21,4.21,0,0,0,4.46,3.46,6.07,6.07,0,0,0,4.43-1.82l3,2.54a9.28,9.28,0,0,1-7.46,3.3C247.23,291.29,243.18,287.56,243.18,282.16Zm12.87-1.48c-.3-2.24-1.66-3.76-3.84-3.76s-3.55,1.48-4,3.76Z" transform="translate(-136.5 -238.16)"/><path class="cls-1" d="M263.51,288.55l2.22-3.29a10.52,10.52,0,0,0,5.75,2.1c1.5,0,2.18-.52,2.18-1.31V286c0-1.09-1.77-1.45-3.78-2-2.55-.73-5.45-1.88-5.45-5.31v-.06c0-3.59,3-5.6,6.68-5.6a13,13,0,0,1,6.81,2l-2,3.46a11.07,11.07,0,0,0-4.93-1.65c-1.26,0-1.91.53-1.91,1.22v.07c0,1,1.74,1.45,3.71,2.11,2.55.82,5.52,2,5.52,5.23v.07c0,3.92-3,5.7-7,5.7A13,13,0,0,1,263.51,288.55Z" transform="translate(-136.5 -238.16)"/><path class="cls-1" d="M290.83,288.55l2.21-3.29a10.55,10.55,0,0,0,5.76,2.1c1.49,0,2.18-.52,2.18-1.31V286c0-1.09-1.78-1.45-3.78-2-2.56-.73-5.45-1.88-5.45-5.31v-.06c0-3.59,3-5.6,6.67-5.6a13,13,0,0,1,6.81,2l-2,3.46a11.11,11.11,0,0,0-4.94-1.65c-1.26,0-1.91.53-1.91,1.22v.07c0,1,1.74,1.45,3.71,2.11,2.56.82,5.52,2,5.52,5.23v.07c0,3.92-3,5.7-7,5.7A13,13,0,0,1,290.83,288.55Z" transform="translate(-136.5 -238.16)"/><path class="cls-1" d="M308.47,282.16v-.07c0-5.07,4.22-9.19,9.91-9.19s9.84,4.05,9.84,9.13v.06c0,5.08-4.22,9.2-9.91,9.2S308.47,287.23,308.47,282.16Zm14.64,0v-.07a4.76,4.76,0,0,0-4.8-4.87,4.59,4.59,0,0,0-4.73,4.81v.06a4.76,4.76,0,0,0,4.8,4.88A4.59,4.59,0,0,0,323.11,282.16Z" transform="translate(-136.5 -238.16)"/><path class="cls-1" d="M332.21,266.84h5.17v24.05h-5.17Z" transform="translate(-136.5 -238.16)"/><path class="cls-1" d="M342.12,284.66V273.23h5.17v9.85c0,2.37,1.16,3.59,3.13,3.59s3.24-1.22,3.24-3.59v-9.85h5.18v17.66h-5.18v-2.5a6.51,6.51,0,0,1-5.35,2.83C344.4,291.22,342.12,288.72,342.12,284.66Z" transform="translate(-136.5 -238.16)"/><path class="cls-1" d="M364.32,285.88v-8.37h-2.18v-4.28h2.18v-4.51h5.18v4.51h4.29v4.28H369.5v7.55c0,1.15.51,1.71,1.67,1.71a5.46,5.46,0,0,0,2.55-.62v4a7.89,7.89,0,0,1-4.09,1C366.47,291.19,364.32,290,364.32,285.88Z" transform="translate(-136.5 -238.16)"/><path class="cls-1" d="M377.7,266.84h5.45v4.45H377.7Zm.14,6.39H383v17.66h-5.18Z" transform="translate(-136.5 -238.16)"/><path class="cls-1" d="M387,282.16v-.07c0-5.07,4.22-9.19,9.91-9.19s9.84,4.05,9.84,9.13v.06c0,5.08-4.22,9.2-9.91,9.2S387,287.23,387,282.16Zm14.65,0v-.07a4.77,4.77,0,0,0-4.81-4.87,4.59,4.59,0,0,0-4.73,4.81v.06a4.76,4.76,0,0,0,4.8,4.88A4.6,4.6,0,0,0,401.65,282.16Z" transform="translate(-136.5 -238.16)"/><path class="cls-1" d="M410.5,273.23h5.18v2.51A6.48,6.48,0,0,1,421,272.9c3.92,0,6.2,2.51,6.2,6.56v11.43h-5.17V281c0-2.37-1.16-3.59-3.14-3.59s-3.23,1.22-3.23,3.59v9.85H410.5Z" transform="translate(-136.5 -238.16)"/><path class="cls-1" d="M430.29,288.55l2.21-3.29a10.55,10.55,0,0,0,5.76,2.1c1.5,0,2.18-.52,2.18-1.31V286c0-1.09-1.77-1.45-3.78-2-2.56-.73-5.45-1.88-5.45-5.31v-.06c0-3.59,3-5.6,6.67-5.6a13,13,0,0,1,6.81,2l-2,3.46a11.11,11.11,0,0,0-4.94-1.65c-1.26,0-1.91.53-1.91,1.22v.07c0,1,1.74,1.45,3.72,2.11,2.55.82,5.51,2,5.51,5.23v.07c0,3.92-3,5.7-7,5.7A13,13,0,0,1,430.29,288.55Z" transform="translate(-136.5 -238.16)"/></svg>